<svg width="627" height="600" viewBox="0 0 627 600" fill="none" xmlns="http://www.w3.org/2000/svg">
<rect x="0.5" y="0.5" width="626" height="599" rx="15.5" stroke="#294740"/>
<path d="M45.086 52V41.506H41.288V39.4H51.332V41.506H47.534V52H45.086ZM59.5953 47.158C59.5953 47.482 59.5773 47.878 59.5593 48.058H52.8273C53.0253 49.426 53.9073 50.236 55.2033 50.236C56.2653 50.236 57.0213 49.732 57.2553 48.85L59.3793 49.426C58.8753 51.136 57.2913 52.144 55.1673 52.144C52.1613 52.144 50.5593 49.822 50.5593 47.464C50.5593 45.106 52.0353 42.784 55.0413 42.784C58.1013 42.784 59.5953 45.052 59.5953 47.158ZM52.8813 46.402H57.1653C57.0573 45.322 56.3553 44.512 55.0413 44.512C53.9253 44.512 53.1333 45.178 52.8813 46.402ZM65.4329 52.144C62.7149 52.144 60.8249 50.236 60.8249 47.464C60.8249 44.692 62.7149 42.784 65.4329 42.784C67.7549 42.784 69.3929 43.99 69.6989 45.916L67.4849 46.348C67.3229 45.394 66.5669 44.746 65.5049 44.746C64.1009 44.746 63.1829 45.808 63.1829 47.464C63.1829 49.12 64.1009 50.182 65.5049 50.182C66.5669 50.182 67.2689 49.606 67.4849 48.634L69.6989 49.084C69.3569 50.992 67.7189 52.144 65.4329 52.144ZM71.4007 52V39.256H73.6687V44.332C74.2627 43.342 75.2887 42.784 76.5487 42.784C78.5827 42.784 79.9327 44.08 79.9327 46.06V52H77.6647V46.618C77.6647 45.502 76.9807 44.8 75.8647 44.8C74.4607 44.8 73.6687 46.006 73.6687 48.058V52H71.4007ZM82.1234 52V42.928H84.3914V44.296C84.9674 43.414 85.9934 42.784 87.2714 42.784C89.2514 42.784 90.5834 44.08 90.5834 46.06V52H88.3154V46.6C88.3154 45.538 87.6494 44.8 86.5874 44.8C85.2014 44.8 84.3914 45.988 84.3914 48.022V52H82.1234ZM97.0237 52.144C94.2697 52.144 92.2897 50.164 92.2897 47.464C92.2897 44.764 94.2697 42.784 97.0237 42.784C99.7777 42.784 101.758 44.764 101.758 47.464C101.758 50.164 99.7777 52.144 97.0237 52.144ZM97.0237 50.182C98.4817 50.182 99.4717 49.084 99.4717 47.464C99.4717 45.844 98.4817 44.746 97.0237 44.746C95.5477 44.746 94.5757 45.844 94.5757 47.464C94.5757 49.084 95.5477 50.182 97.0237 50.182ZM103.463 52V39.256H105.731V52H103.463ZM112.176 52.144C109.422 52.144 107.442 50.164 107.442 47.464C107.442 44.764 109.422 42.784 112.176 42.784C114.93 42.784 116.91 44.764 116.91 47.464C116.91 50.164 114.93 52.144 112.176 52.144ZM112.176 50.182C113.634 50.182 114.624 49.084 114.624 47.464C114.624 45.844 113.634 44.746 112.176 44.746C110.7 44.746 109.728 45.844 109.728 47.464C109.728 49.084 110.7 50.182 112.176 50.182ZM124.862 42.928H127.112V51.424C127.112 53.818 125.312 55.42 122.612 55.42C120.488 55.42 118.778 54.286 118.472 52.594L120.578 52.252C120.686 53.098 121.55 53.602 122.612 53.602C123.98 53.602 124.88 52.828 124.88 51.658V50.668C124.43 51.316 123.44 51.73 122.36 51.73C119.696 51.73 118.13 49.93 118.13 47.266C118.13 44.584 119.696 42.784 122.306 42.784C123.422 42.784 124.358 43.216 124.862 43.846V42.928ZM122.684 49.768C124.088 49.768 125.006 48.778 125.006 47.266C125.006 45.736 124.088 44.746 122.684 44.746C121.298 44.746 120.38 45.736 120.38 47.266C120.38 48.778 121.298 49.768 122.684 49.768ZM135.261 42.928H137.583L132.795 55.276H130.491L131.895 51.64L128.367 42.928H130.833L133.011 48.76L135.261 42.928Z" fill="white"/>
<path d="M42.022 82V72.2H48.196V73.334H43.296V76.218H47.272V77.366H43.296V80.852H48.35V82H42.022ZM51.4279 82L48.8519 74.944H50.0699L52.0299 80.614L54.0039 74.944H55.2359L52.6459 82H51.4279ZM62.5414 78.15C62.5414 78.318 62.5274 78.57 62.5134 78.696H56.9414C57.0254 80.124 57.9214 81.062 59.1954 81.062C60.2734 81.062 61.0154 80.558 61.2254 79.676L62.3454 79.942C61.9954 81.314 60.8194 82.112 59.1954 82.112C57.0814 82.112 55.7514 80.474 55.7514 78.472C55.7514 76.47 57.0394 74.832 59.1674 74.832C61.2534 74.832 62.5414 76.33 62.5414 78.15ZM57.0114 77.702H61.2814C61.1694 76.624 60.4134 75.826 59.1674 75.826C58.0614 75.826 57.2494 76.526 57.0114 77.702ZM68.2034 76.106C67.9374 75.994 67.6014 75.938 67.2934 75.938C66.1734 75.938 65.2634 77.016 65.2634 79.312V82H64.0734V74.944H65.2634V76.372C65.6694 75.476 66.5934 74.832 67.4614 74.832C67.7554 74.832 68.0354 74.874 68.2734 74.958L68.2034 76.106ZM74.0808 74.944H75.2988L71.6028 84.548H70.3848L71.4068 81.902L68.6488 74.944H69.9368L72.0088 80.348L74.0808 74.944ZM83.5754 81.944C83.2254 82.07 82.8474 82.112 82.4694 82.112C81.2654 82.112 80.3834 81.44 80.3834 79.886V75.994H79.0674V74.944H80.3834V72.802H81.5734V74.944H83.4634V75.994H81.5734V79.928C81.5734 80.67 81.9934 81.034 82.6094 81.034C82.8894 81.034 83.2114 80.992 83.4914 80.852L83.5754 81.944ZM91.1703 78.15C91.1703 78.318 91.1563 78.57 91.1423 78.696H85.5703C85.6543 80.124 86.5503 81.062 87.8243 81.062C88.9023 81.062 89.6443 80.558 89.8543 79.676L90.9743 79.942C90.6243 81.314 89.4483 82.112 87.8243 82.112C85.7103 82.112 84.3803 80.474 84.3803 78.472C84.3803 76.47 85.6683 74.832 87.7963 74.832C89.8823 74.832 91.1703 76.33 91.1703 78.15ZM85.6403 77.702H89.9103C89.7983 76.624 89.0423 75.826 87.7963 75.826C86.6903 75.826 85.8783 76.526 85.6403 77.702ZM95.7963 82.112C93.6963 82.112 92.2963 80.656 92.2963 78.472C92.2963 76.288 93.6963 74.832 95.7963 74.832C97.4343 74.832 98.6383 75.728 98.8903 77.128L97.7143 77.366C97.5603 76.512 96.8183 75.896 95.8243 75.896C94.4383 75.896 93.5423 76.918 93.5423 78.472C93.5423 80.026 94.4383 81.048 95.8243 81.048C96.8183 81.048 97.5463 80.502 97.7423 79.564L98.9043 79.802C98.5963 81.258 97.4203 82.112 95.7963 82.112ZM100.386 82V72.088H101.576V76.33C102.094 75.322 102.948 74.832 103.984 74.832C105.58 74.832 106.63 75.826 106.63 77.352V82H105.44V77.576C105.44 76.54 104.796 75.91 103.718 75.91C102.416 75.91 101.576 77.086 101.576 78.976V82H100.386ZM108.562 82V74.944H109.752V76.274C110.242 75.434 111.096 74.832 112.174 74.832C113.644 74.832 114.694 75.826 114.694 77.324V82H113.504V77.548C113.504 76.596 112.902 75.91 111.908 75.91C110.592 75.91 109.752 77.044 109.752 78.906V82H108.562ZM119.806 82.112C117.706 82.112 116.222 80.586 116.222 78.472C116.222 76.358 117.706 74.832 119.806 74.832C121.892 74.832 123.404 76.358 123.404 78.472C123.404 80.586 121.892 82.112 119.806 82.112ZM119.806 81.048C121.22 81.048 122.172 79.984 122.172 78.472C122.172 76.96 121.22 75.896 119.806 75.896C118.392 75.896 117.44 76.96 117.44 78.472C117.44 79.984 118.392 81.048 119.806 81.048ZM124.927 82V72.088H126.117V82H124.927ZM131.222 82.112C129.122 82.112 127.638 80.586 127.638 78.472C127.638 76.358 129.122 74.832 131.222 74.832C133.308 74.832 134.82 76.358 134.82 78.472C134.82 80.586 133.308 82.112 131.222 82.112ZM131.222 81.048C132.636 81.048 133.588 79.984 133.588 78.472C133.588 76.96 132.636 75.896 131.222 75.896C129.808 75.896 128.856 76.96 128.856 78.472C128.856 79.984 129.808 81.048 131.222 81.048ZM141.551 74.944H142.727V81.664C142.727 83.442 141.383 84.66 139.437 84.66C137.799 84.66 136.525 83.792 136.315 82.518L137.463 82.322C137.533 83.106 138.359 83.652 139.437 83.652C140.683 83.652 141.551 82.896 141.551 81.79V80.81C141.229 81.412 140.305 81.818 139.297 81.818C137.127 81.818 135.937 80.32 135.937 78.332C135.937 76.33 137.127 74.832 139.269 74.832C140.207 74.832 141.131 75.28 141.551 75.896V74.944ZM139.409 80.754C140.767 80.754 141.649 79.802 141.649 78.332C141.649 76.848 140.767 75.896 139.409 75.896C138.037 75.896 137.155 76.848 137.155 78.332C137.155 79.802 138.037 80.754 139.409 80.754ZM149.303 74.944H150.521L146.825 84.548H145.607L146.629 81.902L143.871 74.944H145.159L147.231 80.348L149.303 74.944ZM150.234 83.484L151.046 80.544H152.642L151.074 83.484H150.234ZM157.78 82V72.088H158.97V82H157.78ZM163.53 74.832C165.238 74.832 166.428 75.84 166.428 77.478V82H165.252V80.796C164.846 81.608 163.922 82.112 162.9 82.112C161.486 82.112 160.52 81.244 160.52 80.026C160.52 78.668 161.626 77.926 163.88 77.702L165.252 77.548V77.408C165.252 76.442 164.566 75.826 163.53 75.826C162.564 75.826 161.878 76.4 161.78 77.352L160.674 77.142C160.884 75.742 162.046 74.832 163.53 74.832ZM163.082 81.132C164.454 81.132 165.252 80.222 165.252 78.808V78.472L163.88 78.626C162.452 78.78 161.71 79.27 161.71 80.012C161.71 80.67 162.27 81.132 163.082 81.132ZM168.362 82V74.944H169.552V76.274C170.042 75.434 170.896 74.832 171.974 74.832C173.444 74.832 174.494 75.826 174.494 77.324V82H173.304V77.548C173.304 76.596 172.702 75.91 171.708 75.91C170.392 75.91 169.552 77.044 169.552 78.906V82H168.362ZM181.637 74.944H182.813V81.664C182.813 83.442 181.469 84.66 179.523 84.66C177.885 84.66 176.611 83.792 176.401 82.518L177.549 82.322C177.619 83.106 178.445 83.652 179.523 83.652C180.769 83.652 181.637 82.896 181.637 81.79V80.81C181.315 81.412 180.391 81.818 179.383 81.818C177.213 81.818 176.023 80.32 176.023 78.332C176.023 76.33 177.213 74.832 179.355 74.832C180.293 74.832 181.217 75.28 181.637 75.896V74.944ZM179.495 80.754C180.853 80.754 181.735 79.802 181.735 78.332C181.735 76.848 180.853 75.896 179.495 75.896C178.123 75.896 177.241 76.848 177.241 78.332C177.241 79.802 178.123 80.754 179.495 80.754ZM190.873 74.944V82H189.683V80.67C189.193 81.51 188.339 82.112 187.261 82.112C185.791 82.112 184.741 81.118 184.741 79.62V74.944H185.931V79.396C185.931 80.348 186.533 81.034 187.527 81.034C188.843 81.034 189.683 79.9 189.683 78.038V74.944H190.873ZM195.44 74.832C197.148 74.832 198.338 75.84 198.338 77.478V82H197.162V80.796C196.756 81.608 195.832 82.112 194.81 82.112C193.396 82.112 192.43 81.244 192.43 80.026C192.43 78.668 193.536 77.926 195.79 77.702L197.162 77.548V77.408C197.162 76.442 196.476 75.826 195.44 75.826C194.474 75.826 193.788 76.4 193.69 77.352L192.584 77.142C192.794 75.742 193.956 74.832 195.44 74.832ZM194.992 81.132C196.364 81.132 197.162 80.222 197.162 78.808V78.472L195.79 78.626C194.362 78.78 193.62 79.27 193.62 80.012C193.62 80.67 194.18 81.132 194.992 81.132ZM205.481 74.944H206.657V81.664C206.657 83.442 205.313 84.66 203.367 84.66C201.729 84.66 200.455 83.792 200.245 82.518L201.393 82.322C201.463 83.106 202.289 83.652 203.367 83.652C204.613 83.652 205.481 82.896 205.481 81.79V80.81C205.159 81.412 204.235 81.818 203.227 81.818C201.057 81.818 199.867 80.32 199.867 78.332C199.867 76.33 201.057 74.832 203.199 74.832C204.137 74.832 205.061 75.28 205.481 75.896V74.944ZM203.339 80.754C204.697 80.754 205.579 79.802 205.579 78.332C205.579 76.848 204.697 75.896 203.339 75.896C201.967 75.896 201.085 76.848 201.085 78.332C201.085 79.802 201.967 80.754 203.339 80.754ZM214.969 78.15C214.969 78.318 214.955 78.57 214.941 78.696H209.369C209.453 80.124 210.349 81.062 211.623 81.062C212.701 81.062 213.443 80.558 213.653 79.676L214.773 79.942C214.423 81.314 213.247 82.112 211.623 82.112C209.509 82.112 208.179 80.474 208.179 78.472C208.179 76.47 209.467 74.832 211.595 74.832C213.681 74.832 214.969 76.33 214.969 78.15ZM209.439 77.702H213.709C213.597 76.624 212.841 75.826 211.595 75.826C210.489 75.826 209.677 76.526 209.439 77.702ZM222.51 74.832C224.218 74.832 225.408 75.84 225.408 77.478V82H224.232V80.796C223.826 81.608 222.902 82.112 221.88 82.112C220.466 82.112 219.5 81.244 219.5 80.026C219.5 78.668 220.606 77.926 222.86 77.702L224.232 77.548V77.408C224.232 76.442 223.546 75.826 222.51 75.826C221.544 75.826 220.858 76.4 220.76 77.352L219.654 77.142C219.864 75.742 221.026 74.832 222.51 74.832ZM222.062 81.132C223.434 81.132 224.232 80.222 224.232 78.808V78.472L222.86 78.626C221.432 78.78 220.69 79.27 220.69 80.012C220.69 80.67 221.25 81.132 222.062 81.132ZM227.343 82V74.944H228.533V76.274C229.023 75.434 229.877 74.832 230.955 74.832C232.425 74.832 233.475 75.826 233.475 77.324V82H232.285V77.548C232.285 76.596 231.683 75.91 230.689 75.91C229.373 75.91 228.533 77.044 228.533 78.906V82H227.343ZM238.405 82.112C236.207 82.112 235.003 80.544 235.003 78.472C235.003 76.4 236.207 74.832 238.391 74.832C239.329 74.832 240.253 75.294 240.701 75.952V72.088H241.891V82H240.701V80.978C240.379 81.622 239.441 82.112 238.405 82.112ZM238.517 81.048C239.903 81.048 240.813 80.026 240.813 78.472C240.813 76.918 239.903 75.896 238.517 75.896C237.131 75.896 236.221 76.918 236.221 78.472C236.221 80.026 237.131 81.048 238.517 81.048ZM247.895 82V75.994H246.691V74.944H247.895V74.286C247.895 72.732 248.777 71.906 249.981 71.906C250.303 71.906 250.639 71.934 250.933 72.018L250.877 73.082C250.625 72.984 250.373 72.942 250.135 72.942C249.505 72.942 249.085 73.432 249.085 74.188V74.944H250.891V75.994H249.085V82H247.895ZM256.451 76.106C256.185 75.994 255.849 75.938 255.541 75.938C254.421 75.938 253.511 77.016 253.511 79.312V82H252.321V74.944H253.511V76.372C253.917 75.476 254.841 74.832 255.709 74.832C256.003 74.832 256.283 74.874 256.521 74.958L256.451 76.106ZM260.067 74.832C261.775 74.832 262.965 75.84 262.965 77.478V82H261.789V80.796C261.383 81.608 260.459 82.112 259.437 82.112C258.023 82.112 257.057 81.244 257.057 80.026C257.057 78.668 258.163 77.926 260.417 77.702L261.789 77.548V77.408C261.789 76.442 261.103 75.826 260.067 75.826C259.101 75.826 258.415 76.4 258.317 77.352L257.211 77.142C257.421 75.742 258.583 74.832 260.067 74.832ZM259.619 81.132C260.991 81.132 261.789 80.222 261.789 78.808V78.472L260.417 78.626C258.989 78.78 258.247 79.27 258.247 80.012C258.247 80.67 258.807 81.132 259.619 81.132ZM264.9 82V74.944H266.09V76.274C266.44 75.434 267.14 74.832 268.218 74.832C269.366 74.832 270.262 75.364 270.514 76.316C270.892 75.476 271.732 74.832 272.796 74.832C274.308 74.832 275.26 75.784 275.26 77.268V82H274.07V77.506C274.07 76.54 273.524 75.882 272.53 75.882C271.326 75.882 270.668 76.96 270.668 78.458V82H269.478V77.506C269.478 76.54 268.932 75.882 267.952 75.882C266.748 75.882 266.09 76.96 266.09 78.458V82H264.9ZM283.575 78.15C283.575 78.318 283.561 78.57 283.547 78.696H277.975C278.059 80.124 278.955 81.062 280.229 81.062C281.307 81.062 282.049 80.558 282.259 79.676L283.379 79.942C283.029 81.314 281.853 82.112 280.229 82.112C278.115 82.112 276.785 80.474 276.785 78.472C276.785 76.47 278.073 74.832 280.201 74.832C282.287 74.832 283.575 76.33 283.575 78.15ZM278.045 77.702H282.315C282.203 76.624 281.447 75.826 280.201 75.826C279.095 75.826 278.283 76.526 278.045 77.702ZM286.497 82L284.341 74.944H285.559L287.085 80.334L288.737 74.944H289.885L291.537 80.334L293.049 74.944H294.295L292.125 82H290.963L289.311 76.638L287.659 82H286.497ZM298.621 82.112C296.521 82.112 295.037 80.586 295.037 78.472C295.037 76.358 296.521 74.832 298.621 74.832C300.707 74.832 302.219 76.358 302.219 78.472C302.219 80.586 300.707 82.112 298.621 82.112ZM298.621 81.048C300.035 81.048 300.987 79.984 300.987 78.472C300.987 76.96 300.035 75.896 298.621 75.896C297.207 75.896 296.255 76.96 296.255 78.472C296.255 79.984 297.207 81.048 298.621 81.048ZM307.871 76.106C307.605 75.994 307.269 75.938 306.961 75.938C305.841 75.938 304.931 77.016 304.931 79.312V82H303.741V74.944H304.931V76.372C305.337 75.476 306.261 74.832 307.129 74.832C307.423 74.832 307.703 74.874 307.941 74.958L307.871 76.106ZM313.903 82L311.243 78.528L310.305 79.382V82H309.101V72.088H310.305V77.814L313.567 74.944H315.149L312.125 77.73L315.387 82H313.903ZM318.74 82.112C317.032 82.112 316.108 81.048 315.8 80.054L316.822 79.606C317.088 80.432 317.648 81.104 318.74 81.104C319.608 81.104 320.168 80.6 320.168 80.026C320.168 78.22 316.108 79.382 316.108 76.708C316.108 75.588 317.074 74.832 318.586 74.832C319.832 74.832 320.91 75.532 321.204 76.568L320.21 77.002C320.014 76.274 319.314 75.812 318.558 75.812C317.76 75.812 317.256 76.134 317.256 76.694C317.256 78.206 321.344 77.1 321.33 80.012C321.33 81.244 320.294 82.112 318.74 82.112ZM326.134 72.088H327.506V73.6H326.134V72.088ZM326.218 82V74.944H327.408V82H326.218ZM331.701 82.112C329.993 82.112 329.069 81.048 328.761 80.054L329.783 79.606C330.049 80.432 330.609 81.104 331.701 81.104C332.569 81.104 333.129 80.6 333.129 80.026C333.129 78.22 329.069 79.382 329.069 76.708C329.069 75.588 330.035 74.832 331.547 74.832C332.793 74.832 333.871 75.532 334.165 76.568L333.171 77.002C332.975 76.274 332.275 75.812 331.519 75.812C330.721 75.812 330.217 76.134 330.217 76.694C330.217 78.206 334.305 77.1 334.291 80.012C334.291 81.244 333.255 82.112 331.701 82.112ZM46.096 93.106C45.83 92.994 45.494 92.938 45.186 92.938C44.066 92.938 43.156 94.016 43.156 96.312V99H41.966V91.944H43.156V93.372C43.562 92.476 44.486 91.832 45.354 91.832C45.648 91.832 45.928 91.874 46.166 91.958L46.096 93.106ZM53.3813 95.15C53.3813 95.318 53.3673 95.57 53.3533 95.696H47.7812C47.8653 97.124 48.7613 98.062 50.0353 98.062C51.1133 98.062 51.8553 97.558 52.0653 96.676L53.1853 96.942C52.8353 98.314 51.6593 99.112 50.0353 99.112C47.9213 99.112 46.5913 97.474 46.5913 95.472C46.5913 93.47 47.8792 91.832 50.0073 91.832C52.0933 91.832 53.3813 93.33 53.3813 95.15ZM47.8513 94.702H52.1213C52.0093 93.624 51.2533 92.826 50.0073 92.826C48.9013 92.826 48.0892 93.526 47.8513 94.702ZM54.9133 101.548V91.944H56.1033V92.966C56.4813 92.322 57.4053 91.832 58.4273 91.832C60.5973 91.832 61.8013 93.4 61.8013 95.472C61.8013 97.544 60.5693 99.112 58.3993 99.112C57.5033 99.112 56.5793 98.664 56.1033 98.02V101.548H54.9133ZM58.2873 98.048C59.6873 98.048 60.5973 97.026 60.5973 95.472C60.5973 93.918 59.6873 92.896 58.2873 92.896C56.9153 92.896 56.0053 93.918 56.0053 95.472C56.0053 97.026 56.9153 98.048 58.2873 98.048ZM67.4515 93.106C67.1855 92.994 66.8495 92.938 66.5415 92.938C65.4215 92.938 64.5115 94.016 64.5115 96.312V99H63.3215V91.944H64.5115V93.372C64.9175 92.476 65.8415 91.832 66.7095 91.832C67.0035 91.832 67.2835 91.874 67.5215 91.958L67.4515 93.106ZM74.7367 95.15C74.7367 95.318 74.7227 95.57 74.7087 95.696H69.1367C69.2207 97.124 70.1167 98.062 71.3907 98.062C72.4687 98.062 73.2107 97.558 73.4207 96.676L74.5407 96.942C74.1907 98.314 73.0147 99.112 71.3907 99.112C69.2767 99.112 67.9467 97.474 67.9467 95.472C67.9467 93.47 69.2347 91.832 71.3627 91.832C73.4487 91.832 74.7367 93.33 74.7367 95.15ZM69.2067 94.702H73.4767C73.3647 93.624 72.6087 92.826 71.3627 92.826C70.2567 92.826 69.4447 93.526 69.2067 94.702ZM78.5664 99.112C76.8584 99.112 75.9344 98.048 75.6264 97.054L76.6484 96.606C76.9144 97.432 77.4744 98.104 78.5664 98.104C79.4344 98.104 79.9944 97.6 79.9944 97.026C79.9944 95.22 75.9344 96.382 75.9344 93.708C75.9344 92.588 76.9004 91.832 78.4124 91.832C79.6584 91.832 80.7364 92.532 81.0304 93.568L80.0364 94.002C79.8404 93.274 79.1404 92.812 78.3844 92.812C77.5864 92.812 77.0824 93.134 77.0824 93.694C77.0824 95.206 81.1704 94.1 81.1564 97.012C81.1564 98.244 80.1204 99.112 78.5664 99.112ZM88.9965 95.15C88.9965 95.318 88.9825 95.57 88.9685 95.696H83.3965C83.4805 97.124 84.3765 98.062 85.6505 98.062C86.7285 98.062 87.4705 97.558 87.6805 96.676L88.8005 96.942C88.4505 98.314 87.2745 99.112 85.6505 99.112C83.5365 99.112 82.2065 97.474 82.2065 95.472C82.2065 93.47 83.4945 91.832 85.6225 91.832C87.7085 91.832 88.9965 93.33 88.9965 95.15ZM83.4665 94.702H87.7365C87.6245 93.624 86.8685 92.826 85.6225 92.826C84.5165 92.826 83.7045 93.526 83.4665 94.702ZM90.5285 99V91.944H91.7185V93.274C92.2085 92.434 93.0625 91.832 94.1405 91.832C95.6105 91.832 96.6605 92.826 96.6605 94.324V99H95.4705V94.548C95.4705 93.596 94.8685 92.91 93.8745 92.91C92.5585 92.91 91.7185 94.044 91.7185 95.906V99H90.5285ZM102.087 98.944C101.737 99.07 101.359 99.112 100.981 99.112C99.7771 99.112 98.8951 98.44 98.8951 96.886V92.994H97.5791V91.944H98.8951V89.802H100.085V91.944H101.975V92.994H100.085V96.928C100.085 97.67 100.505 98.034 101.121 98.034C101.401 98.034 101.723 97.992 102.003 97.852L102.087 98.944ZM109.682 95.15C109.682 95.318 109.668 95.57 109.654 95.696H104.082C104.166 97.124 105.062 98.062 106.336 98.062C107.414 98.062 108.156 97.558 108.366 96.676L109.486 96.942C109.136 98.314 107.96 99.112 106.336 99.112C104.222 99.112 102.892 97.474 102.892 95.472C102.892 93.47 104.18 91.832 106.308 91.832C108.394 91.832 109.682 93.33 109.682 95.15ZM104.152 94.702H108.422C108.31 93.624 107.554 92.826 106.308 92.826C105.202 92.826 104.39 93.526 104.152 94.702ZM114.21 99.112C112.012 99.112 110.808 97.544 110.808 95.472C110.808 93.4 112.012 91.832 114.196 91.832C115.134 91.832 116.058 92.294 116.506 92.952V89.088H117.696V99H116.506V97.978C116.184 98.622 115.246 99.112 114.21 99.112ZM114.322 98.048C115.708 98.048 116.618 97.026 116.618 95.472C116.618 93.918 115.708 92.896 114.322 92.896C112.936 92.896 112.026 93.918 112.026 95.472C112.026 97.026 112.936 98.048 114.322 98.048ZM119.622 97.544H120.994V99H119.622V97.544ZM125.692 97.838C125.902 97.908 126.182 97.95 126.42 97.95C127.372 97.95 127.82 97.502 127.82 96.228V89.2H129.066V96.186C129.066 98.188 128.044 99.084 126.56 99.084C126.28 99.084 125.916 99.028 125.692 98.972V97.838ZM137.157 91.944V99H135.967V97.67C135.477 98.51 134.623 99.112 133.545 99.112C132.075 99.112 131.025 98.118 131.025 96.62V91.944H132.215V96.396C132.215 97.348 132.817 98.034 133.811 98.034C135.127 98.034 135.967 96.9 135.967 95.038V91.944H137.157ZM141.457 99.112C139.749 99.112 138.825 98.048 138.517 97.054L139.539 96.606C139.805 97.432 140.365 98.104 141.457 98.104C142.325 98.104 142.885 97.6 142.885 97.026C142.885 95.22 138.825 96.382 138.825 93.708C138.825 92.588 139.791 91.832 141.303 91.832C142.549 91.832 143.627 92.532 143.921 93.568L142.927 94.002C142.731 93.274 142.031 92.812 141.275 92.812C140.477 92.812 139.973 93.134 139.973 93.694C139.973 95.206 144.061 94.1 144.047 97.012C144.047 98.244 143.011 99.112 141.457 99.112ZM149.214 98.944C148.864 99.07 148.486 99.112 148.108 99.112C146.904 99.112 146.022 98.44 146.022 96.886V92.994H144.706V91.944H146.022V89.802H147.212V91.944H149.102V92.994H147.212V96.928C147.212 97.67 147.632 98.034 148.248 98.034C148.528 98.034 148.85 97.992 149.13 97.852L149.214 98.944ZM153.98 99V91.944H155.17V93.274C155.52 92.434 156.22 91.832 157.298 91.832C158.446 91.832 159.342 92.364 159.594 93.316C159.972 92.476 160.812 91.832 161.876 91.832C163.388 91.832 164.34 92.784 164.34 94.268V99H163.15V94.506C163.15 93.54 162.604 92.882 161.61 92.882C160.406 92.882 159.748 93.96 159.748 95.458V99H158.558V94.506C158.558 93.54 158.012 92.882 157.032 92.882C155.828 92.882 155.17 93.96 155.17 95.458V99H153.98ZM168.903 91.832C170.611 91.832 171.801 92.84 171.801 94.478V99H170.625V97.796C170.219 98.608 169.295 99.112 168.273 99.112C166.859 99.112 165.893 98.244 165.893 97.026C165.893 95.668 166.999 94.926 169.253 94.702L170.625 94.548V94.408C170.625 93.442 169.939 92.826 168.903 92.826C167.937 92.826 167.251 93.4 167.153 94.352L166.047 94.142C166.257 92.742 167.419 91.832 168.903 91.832ZM168.455 98.132C169.827 98.132 170.625 97.222 170.625 95.808V95.472L169.253 95.626C167.825 95.78 167.083 96.27 167.083 97.012C167.083 97.67 167.643 98.132 168.455 98.132ZM178.538 99L175.878 95.528L174.94 96.382V99H173.736V89.088H174.94V94.814L178.202 91.944H179.784L176.76 94.73L180.022 99H178.538ZM187.229 95.15C187.229 95.318 187.215 95.57 187.201 95.696H181.629C181.713 97.124 182.609 98.062 183.883 98.062C184.961 98.062 185.703 97.558 185.913 96.676L187.033 96.942C186.683 98.314 185.507 99.112 183.883 99.112C181.769 99.112 180.439 97.474 180.439 95.472C180.439 93.47 181.727 91.832 183.855 91.832C185.941 91.832 187.229 93.33 187.229 95.15ZM181.699 94.702H185.969C185.857 93.624 185.101 92.826 183.855 92.826C182.749 92.826 181.937 93.526 181.699 94.702ZM196.786 91.944H198.004L194.308 101.548H193.09L194.112 98.902L191.354 91.944H192.642L194.714 97.348L196.786 91.944ZM202.097 99.112C199.997 99.112 198.513 97.586 198.513 95.472C198.513 93.358 199.997 91.832 202.097 91.832C204.183 91.832 205.695 93.358 205.695 95.472C205.695 97.586 204.183 99.112 202.097 99.112ZM202.097 98.048C203.511 98.048 204.463 96.984 204.463 95.472C204.463 93.96 203.511 92.896 202.097 92.896C200.683 92.896 199.731 93.96 199.731 95.472C199.731 96.984 200.683 98.048 202.097 98.048ZM213.35 91.944V99H212.16V97.67C211.67 98.51 210.816 99.112 209.738 99.112C208.268 99.112 207.218 98.118 207.218 96.62V91.944H208.408V96.396C208.408 97.348 209.01 98.034 210.004 98.034C211.32 98.034 212.16 96.9 212.16 95.038V91.944H213.35ZM219.414 93.106C219.148 92.994 218.812 92.938 218.504 92.938C217.384 92.938 216.474 94.016 216.474 96.312V99H215.284V91.944H216.474V93.372C216.88 92.476 217.804 91.832 218.672 91.832C218.966 91.832 219.246 91.874 219.484 91.958L219.414 93.106ZM224.021 101.548V91.944H225.211V92.966C225.589 92.322 226.513 91.832 227.535 91.832C229.705 91.832 230.909 93.4 230.909 95.472C230.909 97.544 229.677 99.112 227.507 99.112C226.611 99.112 225.687 98.664 225.211 98.02V101.548H224.021ZM227.395 98.048C228.795 98.048 229.705 97.026 229.705 95.472C229.705 93.918 228.795 92.896 227.395 92.896C226.023 92.896 225.113 93.918 225.113 95.472C225.113 97.026 226.023 98.048 227.395 98.048ZM232.345 89.088H233.717V90.6H232.345V89.088ZM232.429 99V91.944H233.619V99H232.429ZM238.64 99.112C236.54 99.112 235.14 97.656 235.14 95.472C235.14 93.288 236.54 91.832 238.64 91.832C240.278 91.832 241.482 92.728 241.734 94.128L240.558 94.366C240.404 93.512 239.662 92.896 238.668 92.896C237.282 92.896 236.386 93.918 236.386 95.472C236.386 97.026 237.282 98.048 238.668 98.048C239.662 98.048 240.39 97.502 240.586 96.564L241.748 96.802C241.44 98.258 240.264 99.112 238.64 99.112ZM248.032 99L245.372 95.528L244.434 96.382V99H243.23V89.088H244.434V94.814L247.696 91.944H249.278L246.254 94.73L249.516 99H248.032ZM250.667 97.544H252.039V99H250.667V97.544Z" fill="#C6C6C6" fill-opacity="0.8"/>
<g clip-path="url(#clip0_12516_1216)">
<path d="M109.535 191.016C109.406 191.028 108.996 191.069 108.626 191.098C100.104 191.866 92.1217 196.464 87.066 203.53C84.2507 207.459 82.4501 211.916 81.7698 216.637C81.5293 218.285 81.5 218.772 81.5 221.006C81.5 223.24 81.5293 223.727 81.7698 225.375C83.4003 236.64 91.4179 246.105 102.292 249.612C104.239 250.239 106.292 250.667 108.626 250.925C109.535 251.025 113.465 251.025 114.374 250.925C118.403 250.48 121.817 249.483 125.183 247.764C125.699 247.5 125.799 247.43 125.729 247.371C125.682 247.336 123.482 244.387 120.843 240.821L116.045 234.341L110.034 225.445C106.726 220.554 104.004 216.555 103.981 216.555C103.957 216.549 103.934 220.502 103.922 225.328C103.905 233.778 103.899 234.118 103.793 234.318C103.641 234.605 103.523 234.722 103.277 234.851C103.089 234.945 102.925 234.963 102.04 234.963H101.025L100.755 234.793C100.579 234.681 100.45 234.535 100.362 234.365L100.239 234.101L100.251 222.343L100.268 210.579L100.45 210.351C100.544 210.227 100.743 210.069 100.884 209.993C101.125 209.876 101.218 209.864 102.233 209.864C103.43 209.864 103.629 209.911 103.94 210.251C104.028 210.345 107.283 215.247 111.177 221.152C115.072 227.058 120.397 235.121 123.013 239.079L127.764 246.275L128.004 246.117C130.133 244.733 132.386 242.762 134.169 240.71C137.963 236.353 140.409 231.04 141.23 225.375C141.471 223.727 141.5 223.24 141.5 221.006C141.5 218.772 141.471 218.285 141.23 216.637C139.6 205.372 131.582 195.907 120.708 192.4C118.79 191.778 116.749 191.35 114.462 191.092C113.899 191.034 110.022 190.969 109.535 191.016ZM121.817 209.16C122.098 209.301 122.327 209.571 122.409 209.852C122.456 210.005 122.468 213.265 122.456 220.613L122.438 231.157L120.579 228.307L118.714 225.457V217.792C118.714 212.837 118.738 210.051 118.773 209.917C118.867 209.588 119.072 209.33 119.353 209.178C119.594 209.055 119.682 209.043 120.603 209.043C121.471 209.043 121.623 209.055 121.817 209.16Z" fill="#273F39"/>
</g>
<g clip-path="url(#clip1_12516_1216)">
<path d="M198.751 251L227.004 222.251L255.5 251H198.751ZM195.5 191H225.5L195.5 222.251V191ZM228.997 191L195.5 226.001V251L255.5 191H228.997Z" fill="#273F39"/>
</g>
<g clip-path="url(#clip2_12516_1216)">
<path d="M357.299 194.041H347L339.5 206.5L333.071 194.041H309.5L339.5 247.999L369.5 194.041H357.299ZM316.96 198.541H324.165L339.5 226.413L354.821 198.541H362.027L339.5 239.069L316.96 198.541Z" fill="#273F39"/>
</g>
<path d="M457.614 234.223C457.973 234.223 458.279 234.091 458.53 233.828C458.782 233.564 458.907 233.241 458.907 232.857C458.907 232.475 458.782 232.151 458.53 231.887C458.279 231.624 457.973 231.492 457.614 231.492C457.255 231.492 456.949 231.624 456.698 231.887C456.446 232.151 456.32 232.475 456.32 232.857C456.32 233.241 456.446 233.564 456.698 233.828C456.949 234.092 457.255 234.223 457.614 234.223Z" fill="#273F39"/>
<path d="M476.469 194.281H430.531C428.46 194.281 426.781 195.96 426.781 198.031V243.969C426.781 246.04 428.46 247.719 430.531 247.719H476.469C478.54 247.719 480.219 246.04 480.219 243.969V198.031C480.219 195.96 478.54 194.281 476.469 194.281ZM445.542 223.407C445.398 223.839 445.314 224.21 445.29 224.521V224.988V228.725H442.739C442.691 228.725 442.613 228.725 442.505 228.725C442.398 228.725 442.2 228.683 441.913 228.599C441.625 228.515 441.344 228.389 441.069 228.222C440.793 228.055 440.494 227.779 440.17 227.395C439.847 227.012 439.565 226.557 439.326 226.03C439.086 225.504 438.889 224.803 438.733 223.929C438.577 223.054 438.5 222.066 438.5 220.965C438.5 220.102 438.553 219.312 438.661 218.593C438.769 217.875 438.918 217.27 439.111 216.779C439.302 216.288 439.517 215.845 439.757 215.449C439.996 215.054 440.254 214.749 440.53 214.534C440.804 214.318 441.074 214.126 441.338 213.958C441.601 213.791 441.859 213.684 442.11 213.635C442.362 213.587 442.577 213.545 442.757 213.51C442.937 213.474 443.086 213.468 443.206 213.491H443.386H453.518V212.414H446.26V208.821C446.236 208.725 446.23 208.6 446.242 208.444C446.254 208.288 446.368 208.012 446.584 207.617C446.799 207.222 447.129 206.875 447.572 206.575C448.015 206.276 448.739 206 449.746 205.749C450.751 205.498 451.961 205.372 453.374 205.372C454.476 205.372 455.452 205.45 456.302 205.606C457.153 205.762 457.829 205.959 458.332 206.198C458.836 206.438 459.267 206.707 459.626 207.006C459.985 207.306 460.231 207.606 460.363 207.905C460.494 208.204 460.596 208.474 460.668 208.713C460.74 208.953 460.763 209.157 460.74 209.324V209.539V216.438C460.74 217.205 460.602 217.875 460.326 218.45C460.051 219.025 459.71 219.438 459.303 219.689C458.895 219.941 458.494 220.138 458.099 220.282C457.704 220.426 457.374 220.498 457.111 220.498L456.68 220.533H449.494C448.679 220.533 447.979 220.689 447.392 221C446.805 221.312 446.386 221.683 446.135 222.114C445.883 222.545 445.685 222.976 445.542 223.407ZM468.231 223.982C468.051 224.844 467.818 225.533 467.53 226.048C467.243 226.563 466.925 227 466.578 227.36C466.231 227.719 465.883 227.97 465.536 228.114C465.189 228.258 464.872 228.365 464.584 228.437C464.297 228.509 464.069 228.534 463.901 228.509H463.614H453.482V229.587H460.74V233.18C460.763 233.276 460.769 233.402 460.758 233.558C460.745 233.713 460.632 233.988 460.416 234.383C460.201 234.779 459.871 235.126 459.429 235.425C458.985 235.725 458.261 236 457.255 236.251C456.249 236.503 455.039 236.629 453.626 236.629C452.524 236.629 451.548 236.551 450.698 236.396C449.847 236.239 449.171 236.042 448.668 235.803C448.165 235.563 447.734 235.293 447.374 234.994C447.015 234.694 446.769 234.395 446.638 234.096C446.506 233.797 446.404 233.527 446.332 233.288C446.26 233.049 446.236 232.845 446.26 232.677V232.461V225.563C446.26 224.797 446.398 224.126 446.674 223.551C446.949 222.976 447.29 222.563 447.698 222.311C448.105 222.06 448.506 221.862 448.902 221.719C449.297 221.575 449.626 221.491 449.889 221.467H450.321H457.506C458.32 221.467 459.021 221.311 459.608 221C460.194 220.689 460.614 220.318 460.866 219.886C461.117 219.455 461.315 219.024 461.458 218.593C461.602 218.162 461.686 217.79 461.71 217.479V217.012V213.275H464.261C464.309 213.275 464.387 213.275 464.495 213.275C464.602 213.275 464.8 213.318 465.088 213.401C465.375 213.485 465.656 213.611 465.932 213.778C466.207 213.946 466.507 214.222 466.83 214.605C467.153 214.988 467.428 215.443 467.656 215.97C467.884 216.497 468.081 217.197 468.249 218.071C468.416 218.946 468.5 219.934 468.5 221.035C468.5 222.138 468.41 223.12 468.231 223.982Z" fill="#273F39"/>
<path d="M449.385 207.779C449.026 207.779 448.721 207.911 448.469 208.175C448.217 208.439 448.092 208.762 448.092 209.145C448.092 209.528 448.217 209.852 448.469 210.115C448.72 210.379 449.026 210.511 449.385 210.511C449.745 210.511 450.05 210.379 450.301 210.115C450.553 209.852 450.679 209.528 450.679 209.145C450.679 208.762 450.553 208.439 450.301 208.175C450.05 207.911 449.745 207.779 449.385 207.779Z" fill="#273F39"/>
<g clip-path="url(#clip3_12516_1216)">
<path d="M131.486 291.001C131.069 290.276 130.491 289.644 129.856 289.276L107.816 276.551C106.544 275.816 104.466 275.816 103.196 276.551L81.1512 289.276C79.8812 290.009 78.8438 291.809 78.8438 293.276V318.726C78.8438 319.461 79.1038 320.276 79.5213 321.001C79.9388 321.726 80.5162 322.359 81.1512 322.726L103.191 335.451C104.461 336.184 106.541 336.184 107.811 335.451L129.851 322.726C130.486 322.359 131.064 321.726 131.481 321.001C131.899 320.276 132.156 319.461 132.156 318.726V293.276C132.164 292.541 131.906 291.726 131.486 291.001ZM105.501 323.776C95.7013 323.776 87.7288 315.801 87.7288 306.001C87.7288 296.201 95.7038 288.226 105.504 288.226C108.622 288.231 111.684 289.054 114.384 290.613C117.085 292.172 119.329 294.411 120.894 297.109L113.204 301.559C112.421 300.209 111.299 299.087 109.948 298.306C108.596 297.526 107.064 297.113 105.504 297.109C103.146 297.111 100.885 298.048 99.218 299.715C97.5508 301.383 96.6132 303.643 96.6113 306.001C96.6146 308.358 97.5523 310.617 99.2189 312.283C100.885 313.949 103.145 314.886 105.501 314.889C107.061 314.885 108.593 314.473 109.944 313.693C111.295 312.913 112.418 311.793 113.201 310.444L120.896 314.894C119.33 317.59 117.084 319.829 114.383 321.387C111.682 322.946 108.62 323.769 105.501 323.776ZM123.276 306.989H121.301V308.964H119.326V306.989H117.351V305.014H119.326V303.039H121.301V305.014H123.276V306.989ZM130.681 306.989H128.706V308.964H126.731V306.989H124.756V305.014H126.731V303.039H128.706V305.014H130.681V306.989Z" fill="#273F39"/>
</g>
<path d="M219.525 299.676H220.13L219.525 299.935L210.749 303.691L211.078 307.441H219.525H224.111L223.694 312.344L219.525 313.506V313.503L219.496 313.507L215.307 312.382L215.033 309.391H211.263L211.789 315.284L219.495 317.418L219.525 317.411V317.414L227.205 315.28L228.217 303.691H219.525L228.558 299.676L228.88 295.926H219.525H219.487H210.082L210.415 299.676H219.525Z" fill="#273F39"/>
<path d="M242.469 279.281H196.531C194.46 279.281 192.781 280.96 192.781 283.031V328.969C192.781 331.04 194.46 332.719 196.531 332.719H242.469C244.54 332.719 246.219 331.04 246.219 328.969V283.031C246.219 280.96 244.54 279.281 242.469 279.281ZM231.767 320.507L219.482 323.913L207.23 320.512L204.5 289.891H234.5L231.767 320.507Z" fill="#273F39"/>
<path d="M362.9 320.101C362.9 320.101 368.3 319.501 368.3 312.901C368.3 306.301 362 305.401 362 305.401H350.6V327.001H356.3V321.901L361.4 327.001H369.5L362.9 320.101ZM360.5 315.901H356V311.101H360.5C360.5 311.101 361.7 311.701 361.7 313.501C362 315.301 360.5 315.901 360.5 315.901ZM367.4 294.601V295.201C343.1 288.301 333.5 309.601 335.3 326.101H316.4C318.5 309.901 338.9 277.801 367.4 294.601ZM365 290.701C362.9 289.801 360.8 288.901 358.7 288.301L359 284.401L365.3 286.801L365 290.701ZM359 296.101C361.1 296.101 363.2 296.401 365.3 297.001L365 300.601L359.6 300.001L359 296.101ZM345.2 287.401L344 283.801L350.3 283.201L351.5 287.101C350.9 287.101 345.8 287.401 345.2 287.401ZM349.1 298.501C350.3 297.901 352.4 297.001 355.1 296.401L356.3 300.001L350.9 302.101L349.1 298.501ZM338.9 289.501C337.1 290.401 335.3 291.301 333.5 292.501L331.1 288.601L336.5 285.601L338.9 289.501ZM346.4 300.301L348.8 303.901L345.5 307.801L342.2 304.801C343.1 303.001 344.6 301.501 346.4 300.301ZM338.3 315.001C338.6 312.601 339.2 310.501 340.1 308.101L343.7 311.101L342.8 316.801L338.3 315.001ZM327.2 297.901C325.7 299.401 324.2 301.201 323 302.701L319.1 299.401L323.6 294.601L327.2 297.901ZM317.9 311.101C316.7 313.501 315.8 315.901 314.9 318.001L309.5 315.901L312.2 309.001L317.9 311.101ZM338 318.901L343.4 320.701L344.3 326.701L338.3 325.201C338.3 324.601 338 322.501 338 318.901Z" fill="#273F39"/>
<g clip-path="url(#clip4_12516_1216)">
<path d="M469.985 296.914C471.327 299.689 467.246 299.984 467.455 301.223C467.839 303.456 467.577 306.772 467.281 310.034C466.773 315.564 470.909 328.805 462.292 334.125C460.669 335.138 456.814 335.696 453.01 335.782H452.975C449.172 335.696 444.792 335.138 443.169 334.125C434.569 328.805 438.704 315.564 438.216 310.034C437.902 306.772 437.64 303.456 438.041 301.223C438.25 299.984 434.168 299.706 435.512 296.914C436.663 294.523 439.508 296.635 440.221 295.884C443.868 292.101 448.3 291.087 451.789 291H453.709C457.179 291.175 461.611 292.116 465.274 295.884C465.99 296.635 468.816 294.524 469.985 296.914ZM451.09 311.411C450.934 311.482 450.672 313.192 451.474 313.278C452.016 313.331 453.498 313.504 453.846 313.278C454.528 312.841 454.458 311.795 454.074 311.533C453.428 311.115 451.265 311.324 451.09 311.411ZM446.662 298.608C444.864 298.399 441.846 300.073 441.392 303.633C440.903 307.331 445.265 310.994 449.452 307.331C451.704 305.359 452.489 299.288 446.662 298.608ZM458.805 298.608C452.977 299.288 453.762 305.359 456.013 307.331C460.199 310.994 464.561 307.331 464.071 303.633C463.636 300.075 460.62 298.399 458.805 298.608Z" fill="#273F39"/>
<path d="M452.748 307.8C453.848 307.644 456.482 308.9 456.307 310.383C456.098 312.11 449.52 312.338 449.171 310.278C448.962 309.022 449.956 308.22 452.748 307.8ZM467.594 321.706C467.053 321.687 466.705 320.972 466.705 320.537C466.705 319.752 466.809 318.827 467.385 318.426C468.571 317.605 469.512 321.723 467.594 321.706ZM437.884 321.706C435.964 321.723 436.905 317.605 438.093 318.426C438.669 318.827 438.773 319.752 438.773 320.535C438.773 320.974 438.425 321.687 437.884 321.706ZM463.949 334.354C464.297 334.861 464.314 335.209 463.757 335.471C461.629 336.448 459.728 335.139 460.443 334.774C461.959 334.006 462.902 332.801 463.949 334.354ZM441.529 334.529C442.576 332.976 443.519 334.179 445.037 334.947C445.752 335.314 443.851 336.623 441.723 335.644C441.164 335.384 441.181 335.034 441.529 334.529Z" fill="#273F39"/>
<path d="M466.721 297.335C466.808 296.968 467.715 296.793 468.222 297.421C468.832 298.171 467.331 299.201 467.262 298.783C467.088 297.647 466.618 297.702 466.721 297.335ZM438.755 297.333C438.861 297.698 438.388 297.645 438.215 298.781C438.145 299.199 436.645 298.169 437.255 297.419C437.744 296.791 438.65 296.966 438.755 297.333ZM459.202 305.828C458.674 305.828 458.169 305.618 457.796 305.245C457.423 304.873 457.214 304.367 457.214 303.84C457.214 303.312 457.423 302.807 457.796 302.434C458.169 302.061 458.674 301.851 459.202 301.851C459.729 301.851 460.235 302.061 460.608 302.434C460.98 302.807 461.19 303.312 461.19 303.84C461.19 304.367 460.98 304.873 460.608 305.245C460.235 305.618 459.729 305.828 459.202 305.828ZM458.678 303.612C458.764 303.616 458.849 303.604 458.929 303.574C459.01 303.545 459.083 303.499 459.145 303.44C459.207 303.382 459.257 303.311 459.29 303.232C459.324 303.154 459.342 303.069 459.342 302.984C459.342 302.898 459.324 302.814 459.29 302.735C459.257 302.657 459.207 302.586 459.145 302.527C459.083 302.468 459.01 302.423 458.929 302.393C458.849 302.364 458.764 302.351 458.678 302.356C458.518 302.365 458.367 302.435 458.256 302.552C458.146 302.668 458.084 302.823 458.084 302.984C458.084 303.145 458.146 303.299 458.256 303.416C458.367 303.533 458.518 303.603 458.678 303.612ZM450.95 308.639C451.159 307.835 451.891 307.573 452.486 307.556C454.004 307.52 454.58 308.341 454.632 308.987C454.736 310.084 450.479 310.348 450.95 308.639ZM446.275 305.828C445.748 305.828 445.242 305.618 444.869 305.245C444.496 304.873 444.287 304.367 444.287 303.84C444.287 303.312 444.496 302.807 444.869 302.434C445.242 302.061 445.748 301.851 446.275 301.851C446.802 301.851 447.308 302.061 447.681 302.434C448.054 302.807 448.263 303.312 448.263 303.84C448.263 304.367 448.054 304.873 447.681 305.245C447.308 305.618 446.802 305.828 446.275 305.828ZM446.798 303.612C446.884 303.616 446.969 303.604 447.049 303.574C447.13 303.545 447.203 303.499 447.265 303.44C447.327 303.382 447.377 303.311 447.41 303.232C447.444 303.154 447.462 303.069 447.462 302.984C447.462 302.898 447.444 302.814 447.41 302.735C447.377 302.657 447.327 302.586 447.265 302.527C447.203 302.468 447.13 302.423 447.049 302.393C446.969 302.364 446.884 302.351 446.798 302.356C446.638 302.365 446.487 302.435 446.376 302.552C446.266 302.668 446.204 302.823 446.204 302.984C446.204 303.145 446.266 303.299 446.376 303.416C446.487 303.533 446.638 303.603 446.798 303.612Z" fill="#273F39"/>
</g>
<path d="M111.502 361.248L133.602 369.123L130.252 398.373L111.502 408.748L92.7523 398.373L89.4023 369.123L111.502 361.248ZM111.502 366.498L97.6773 397.498H102.827L105.602 390.548H117.352L120.127 397.498H125.252L111.502 366.498ZM115.552 386.248H107.477L111.502 376.573L115.552 386.248Z" fill="#273F39"/>
<path d="M210.935 380.835C207.916 381.854 206.049 383.262 206.049 384.817C206.049 386.938 209.52 388.785 214.648 389.745M214.648 389.745C212.744 390.708 211.605 391.931 211.605 393.262C211.605 396.371 217.823 398.891 225.494 398.891C227.469 398.891 229.348 398.724 231.049 398.423M214.648 389.745C217.039 390.192 219.789 390.447 222.716 390.447C226.985 390.447 230.878 389.905 233.827 389.013M236.605 380.313C233.076 381.356 228.157 382.003 222.716 382.003C211.977 382.003 203.271 379.482 203.271 376.373C203.271 373.972 208.462 371.923 215.771 371.113" stroke="#273F39" stroke-width="4.5" stroke-linecap="round" stroke-linejoin="round"/>
<path d="M250.502 402.675C250.502 406.721 239.309 410 225.502 410C211.695 410 200.502 406.721 200.502 402.675C200.502 399.799 204.77 397.31 213.002 396.111" stroke="#273F39" stroke-width="4.5" stroke-linecap="round"/>
<path d="M242.398 376.967C252.936 374.233 254.441 390.638 239.387 396.107" stroke="#273F39" stroke-width="4.5" stroke-linecap="round" stroke-linejoin="round"/>
<path d="M239.398 360.002C237.545 360.311 234.064 362.039 234.953 366.483C235.842 370.928 234.583 373.274 233.842 373.891" stroke="#273F39" stroke-width="4.5" stroke-linecap="round" stroke-linejoin="round"/>
<path d="M228.28 360.002C226.428 360.372 222.946 362.446 223.835 367.78C224.724 373.113 223.465 374.539 222.725 375.28" stroke="#273F39" stroke-width="4.5" stroke-linecap="round" stroke-linejoin="round"/>
<path d="M344.972 389.344C344.892 389.328 344.81 389.322 344.729 389.325C344.588 389.333 344.45 389.37 344.323 389.434C344.077 389.556 343.887 389.771 343.791 390.034C343.695 390.298 343.702 390.589 343.81 390.847L343.803 390.858L346.229 396.892C348.551 395.367 350.313 393.089 351.236 390.419L344.983 389.331L344.972 389.344ZM335.242 390.2C335.189 389.962 335.061 389.749 334.877 389.595C334.693 389.441 334.464 389.356 334.227 389.352C334.157 389.351 334.087 389.357 334.018 389.371L334.008 389.358L327.809 390.441C328.74 393.091 330.494 395.35 332.8 396.869L335.202 390.894L335.183 390.871C335.272 390.659 335.292 390.424 335.242 390.2ZM340.434 392.543C340.343 392.369 340.208 392.224 340.044 392.123C339.88 392.021 339.692 391.968 339.5 391.968C339.308 391.969 339.121 392.022 338.956 392.124C338.792 392.226 338.658 392.371 338.568 392.545H338.563L335.514 398.219C337.697 398.984 340.043 399.108 342.291 398.577C342.708 398.48 343.115 398.363 343.512 398.226L340.457 392.542L340.434 392.543ZM350.084 379.363L345.394 383.684L345.396 383.698C345.252 383.827 345.145 383.995 345.086 384.182C345.026 384.369 345.018 384.57 345.06 384.762C345.103 384.954 345.195 385.13 345.328 385.273C345.46 385.415 345.627 385.518 345.812 385.571L345.817 385.597L351.892 387.398C352.155 384.589 351.52 381.768 350.084 379.363V379.363ZM341.37 379.847C341.379 380.044 341.439 380.234 341.545 380.399C341.651 380.563 341.797 380.695 341.97 380.78C342.142 380.865 342.334 380.901 342.525 380.883C342.715 380.865 342.898 380.795 343.053 380.679L343.071 380.687L348.203 376.941C346.25 374.972 343.722 373.717 341.008 373.371L341.364 379.845L341.37 379.847ZM335.935 380.703C336.09 380.819 336.272 380.889 336.463 380.907C336.654 380.924 336.845 380.888 337.018 380.803C337.19 380.717 337.337 380.585 337.442 380.42C337.547 380.256 337.607 380.065 337.615 379.868L337.641 379.855L337.998 373.371C337.567 373.424 337.14 373.5 336.717 373.598C334.467 374.119 332.404 375.276 330.759 376.94L335.925 380.709L335.935 380.703ZM333.181 385.602C333.366 385.55 333.534 385.448 333.667 385.305C333.799 385.163 333.892 384.986 333.935 384.794C333.977 384.602 333.968 384.401 333.909 384.213C333.85 384.026 333.742 383.858 333.597 383.729L333.602 383.703L328.886 379.361C327.447 381.772 326.83 384.607 327.131 387.419L333.176 385.624L333.181 385.602ZM337.762 387.509L339.502 388.371L341.236 387.511L341.667 385.584L340.467 384.038H338.534L337.331 385.581L337.762 387.509Z" fill="#273F39"/>
<path d="M368.262 391.309L363.305 369.145C363.171 368.572 362.916 368.036 362.557 367.576C362.198 367.117 361.745 366.745 361.229 366.488L341.163 356.626C340.643 356.371 340.074 356.238 339.497 356.238C338.921 356.238 338.352 356.371 337.832 356.626L317.769 366.493C317.254 366.75 316.8 367.122 316.441 367.581C316.082 368.041 315.827 368.577 315.694 369.15L310.744 391.313C310.622 391.874 310.622 392.455 310.743 393.015C310.779 393.186 310.825 393.354 310.883 393.518C310.98 393.799 311.108 394.067 311.265 394.317C311.333 394.423 311.405 394.527 311.483 394.628L325.37 412.4C325.43 412.477 325.497 412.548 325.563 412.619C325.781 412.858 326.027 413.068 326.296 413.244C326.635 413.464 327.006 413.63 327.393 413.735C327.712 413.825 328.04 413.872 328.369 413.874H328.585L350.639 413.869C350.773 413.868 350.907 413.86 351.04 413.844C351.231 413.822 351.421 413.785 351.606 413.734C351.739 413.697 351.871 413.654 351.999 413.604C352.1 413.565 352.2 413.525 352.297 413.477C352.441 413.406 352.582 413.325 352.717 413.236C353.067 413.01 353.378 412.727 353.639 412.397L354.062 411.856L367.521 394.622C367.779 394.289 367.981 393.915 368.121 393.514C368.179 393.349 368.226 393.18 368.263 393.009C368.385 392.449 368.384 391.868 368.262 391.307L368.262 391.309ZM347.448 399.929C347.505 400.1 347.571 400.266 347.648 400.428C347.525 400.649 347.492 400.911 347.555 401.157C347.847 401.845 348.204 402.503 348.62 403.119C348.853 403.435 349.068 403.764 349.264 404.105C349.312 404.197 349.375 404.34 349.421 404.437C349.508 404.586 349.563 404.752 349.583 404.924C349.604 405.096 349.589 405.27 349.54 405.436C349.491 405.602 349.409 405.755 349.299 405.886C349.189 406.018 349.054 406.124 348.902 406.198C348.749 406.272 348.584 406.312 348.415 406.316C348.247 406.321 348.08 406.289 347.924 406.222C347.769 406.156 347.628 406.057 347.512 405.932C347.396 405.806 347.307 405.657 347.25 405.494C347.204 405.397 347.141 405.268 347.102 405.177C346.964 404.807 346.848 404.428 346.753 404.044C346.545 403.325 346.269 402.629 345.929 401.965C345.781 401.76 345.561 401.623 345.316 401.583C345.278 401.514 345.135 401.246 345.059 401.107C341.487 402.5 337.542 402.489 333.976 401.078L333.705 401.585C333.511 401.616 333.33 401.706 333.187 401.845C332.778 402.536 332.465 403.284 332.257 404.065C332.163 404.449 332.047 404.828 331.911 405.198C331.872 405.289 331.808 405.416 331.762 405.512V405.515L331.76 405.517C331.703 405.681 331.614 405.83 331.498 405.956C331.382 406.081 331.241 406.18 331.086 406.247C330.93 406.313 330.762 406.345 330.594 406.341C330.425 406.336 330.26 406.296 330.107 406.221C329.955 406.147 329.82 406.04 329.71 405.909C329.6 405.777 329.518 405.624 329.47 405.457C329.421 405.291 329.407 405.117 329.428 404.944C329.449 404.772 329.505 404.607 329.592 404.458C329.637 404.36 329.698 404.218 329.746 404.126C329.942 403.784 330.157 403.454 330.389 403.138C330.813 402.505 331.177 401.831 331.476 401.127C331.508 400.888 331.471 400.645 331.369 400.428L331.588 399.889C328.301 397.892 325.838 394.727 324.663 390.989L324.139 391.081C323.936 390.932 323.697 390.846 323.448 390.83C322.732 390.971 322.031 391.184 321.355 391.464C321.004 391.627 320.644 391.769 320.278 391.889C320.191 391.914 320.066 391.938 319.967 391.961C319.959 391.964 319.952 391.967 319.944 391.969C319.938 391.97 319.932 391.971 319.925 391.971C319.766 392.025 319.597 392.044 319.43 392.027C319.263 392.01 319.102 391.957 318.956 391.872C318.81 391.787 318.682 391.672 318.582 391.533C318.482 391.395 318.411 391.236 318.374 391.068C318.336 390.9 318.334 390.725 318.366 390.555C318.398 390.386 318.464 390.225 318.56 390.083C318.656 389.942 318.779 389.822 318.922 389.732C319.066 389.643 319.226 389.585 319.392 389.562L319.41 389.558L319.42 389.555C319.521 389.531 319.649 389.496 319.741 389.478C320.123 389.424 320.508 389.392 320.893 389.383C321.62 389.334 322.341 389.212 323.046 389.019C323.254 388.882 323.431 388.699 323.562 388.483L324.064 388.332C323.519 384.431 324.392 380.46 326.515 377.181L326.13 376.828C326.116 376.571 326.033 376.324 325.889 376.114C325.336 375.625 324.738 375.192 324.103 374.823C323.76 374.643 323.428 374.443 323.107 374.223C323.034 374.167 322.938 374.083 322.859 374.017L322.841 374.004C322.567 373.802 322.383 373.497 322.328 373.156C322.272 372.814 322.351 372.464 322.545 372.182C322.66 372.037 322.807 371.922 322.973 371.846C323.139 371.771 323.321 371.736 323.502 371.746C323.808 371.76 324.101 371.874 324.339 372.071C324.421 372.137 324.533 372.225 324.605 372.289C324.885 372.562 325.149 372.85 325.396 373.153C325.887 373.708 326.43 374.213 327.016 374.659C327.235 374.778 327.491 374.804 327.729 374.731C327.872 374.838 328.016 374.944 328.162 375.047C330.272 372.739 333.005 371.132 336.009 370.433C336.724 370.267 337.449 370.152 338.18 370.09L338.209 369.567C338.395 369.397 338.53 369.175 338.598 368.928C338.625 368.178 338.58 367.427 338.465 366.686C338.388 366.298 338.334 365.905 338.301 365.51C338.298 365.42 338.302 365.296 338.304 365.194C338.304 365.182 338.301 365.171 338.301 365.159C338.284 364.986 338.302 364.812 338.355 364.647C338.407 364.482 338.493 364.33 338.606 364.201C338.719 364.072 338.857 363.969 339.011 363.898C339.165 363.828 339.332 363.791 339.501 363.791C339.67 363.791 339.837 363.827 339.991 363.898C340.145 363.968 340.283 364.071 340.397 364.2C340.51 364.329 340.596 364.481 340.648 364.646C340.701 364.811 340.72 364.985 340.703 365.158C340.703 365.266 340.709 365.41 340.705 365.509C340.672 365.904 340.617 366.297 340.54 366.685C340.425 367.426 340.379 368.177 340.404 368.927C340.452 369.178 340.593 369.4 340.797 369.545C340.801 369.634 340.815 369.933 340.826 370.097C344.622 370.452 348.164 372.214 350.794 375.055L351.251 374.719C351.497 374.762 351.749 374.734 351.98 374.637C352.566 374.19 353.108 373.685 353.599 373.129C353.847 372.826 354.111 372.537 354.392 372.265C354.465 372.2 354.577 372.113 354.658 372.047C354.779 371.925 354.923 371.83 355.081 371.768C355.24 371.707 355.409 371.681 355.578 371.691C355.747 371.702 355.912 371.749 356.062 371.829C356.212 371.909 356.344 372.021 356.45 372.157C356.555 372.294 356.631 372.451 356.674 372.62C356.716 372.788 356.724 372.964 356.696 373.136C356.668 373.308 356.606 373.472 356.512 373.617C356.419 373.762 356.297 373.886 356.154 373.979C356.074 374.046 355.967 374.14 355.89 374.199C355.569 374.418 355.236 374.618 354.892 374.798C354.257 375.168 353.659 375.601 353.106 376.09C352.945 376.284 352.864 376.535 352.88 376.79C352.814 376.853 352.579 377.067 352.455 377.183C354.584 380.451 355.474 384.409 354.956 388.308L355.441 388.453C355.562 388.678 355.742 388.863 355.959 388.989C356.664 389.183 357.385 389.305 358.112 389.354C358.498 389.363 358.882 389.395 359.264 389.449C359.365 389.468 359.511 389.509 359.614 389.534C359.78 389.556 359.94 389.614 360.083 389.704C360.227 389.794 360.35 389.914 360.446 390.055C360.542 390.197 360.608 390.358 360.64 390.528C360.672 390.697 360.669 390.872 360.632 391.04C360.594 391.208 360.523 391.367 360.423 391.505C360.323 391.644 360.195 391.759 360.049 391.844C359.903 391.929 359.741 391.982 359.574 391.999C359.407 392.015 359.239 391.996 359.079 391.942L359.062 391.94C359.054 391.938 359.047 391.933 359.038 391.931C358.939 391.909 358.815 391.887 358.728 391.863C358.362 391.742 358.002 391.599 357.651 391.435C356.975 391.154 356.273 390.942 355.556 390.801C355.308 390.793 355.067 390.885 354.884 391.058C354.713 391.025 354.542 390.994 354.371 390.965C353.21 394.726 350.746 397.916 347.448 399.929Z" fill="#273F39"/>
<path d="M453.504 388.748C452.509 388.748 451.556 388.353 450.852 387.649C450.149 386.946 449.754 385.992 449.754 384.998C449.754 384.003 450.149 383.049 450.852 382.346C451.556 381.643 452.509 381.248 453.504 381.248C454.498 381.248 455.452 381.643 456.156 382.346C456.859 383.049 457.254 384.003 457.254 384.998C457.254 385.992 456.859 386.946 456.156 387.649C455.452 388.353 454.498 388.748 453.504 388.748ZM452.184 396.233C452.621 396.76 453.061 397.267 453.504 397.755C453.947 397.269 454.387 396.761 454.824 396.233C453.944 396.251 453.064 396.251 452.184 396.233ZM447.196 395.92C445.277 395.72 443.37 395.413 441.484 395.003C441.296 395.878 441.154 396.724 441.059 397.54C440.584 401.498 441.246 403.903 442.254 404.483C443.261 405.063 445.674 404.435 448.866 402.048C449.525 401.555 450.186 401.009 450.851 400.41C449.551 398.982 448.331 397.483 447.196 395.92ZM465.524 395.003C463.638 395.413 461.731 395.72 459.811 395.92C458.677 397.483 457.456 398.982 456.156 400.41C456.823 401.01 457.485 401.556 458.141 402.048C461.334 404.435 463.746 405.065 464.754 404.483C465.761 403.903 466.421 401.498 465.951 397.54C465.849 396.688 465.705 395.842 465.524 395.003ZM469.151 394.033C470.594 400.63 469.836 405.883 466.631 407.733C463.426 409.583 458.499 407.613 453.506 403.065C448.514 407.613 443.586 409.58 440.381 407.73C437.176 405.88 436.419 400.63 437.859 394.03C431.421 391.983 427.254 388.698 427.254 384.998C427.254 381.298 431.421 378.015 437.856 375.965C436.416 369.365 437.174 364.115 440.379 362.265C443.584 360.415 448.511 362.383 453.504 366.93C458.496 362.383 463.424 360.415 466.629 362.265C469.834 364.115 470.591 369.365 469.151 375.965C475.584 378.015 479.751 381.298 479.751 384.998C479.751 388.698 475.584 391.983 469.151 394.033ZM450.849 369.585C450.186 368.987 449.525 368.441 448.866 367.948C445.674 365.56 443.261 364.93 442.251 365.513C441.244 366.093 440.584 368.498 441.054 372.458C441.154 373.275 441.296 374.12 441.479 374.995C443.366 374.584 445.273 374.277 447.194 374.075C448.384 372.44 449.602 370.944 450.849 369.585ZM459.811 374.075C461.731 374.277 463.638 374.584 465.524 374.995C465.712 374.119 465.854 373.273 465.949 372.458C466.424 368.498 465.761 366.093 464.754 365.513C463.746 364.933 461.334 365.56 458.141 367.948C457.483 368.441 456.821 368.987 456.156 369.585C457.403 370.944 458.621 372.44 459.811 374.075ZM454.824 373.763C454.387 373.236 453.947 372.729 453.504 372.24C453.062 372.729 452.622 373.236 452.184 373.763C453.064 373.744 453.944 373.744 454.824 373.763ZM444.434 391.758C443.978 391.006 443.538 390.244 443.114 389.473C442.876 390.115 442.656 390.75 442.456 391.378C443.1 391.516 443.758 391.643 444.431 391.758M449.261 392.343C452.084 392.552 454.919 392.552 457.741 392.343C459.334 390.002 460.753 387.547 461.984 384.998C460.753 382.448 459.336 379.993 457.744 377.653C454.921 377.444 452.087 377.444 449.264 377.653C447.672 379.993 446.255 382.448 445.024 384.998C446.255 387.547 447.672 390.002 449.264 392.343M463.894 380.523C464.132 379.881 464.351 379.247 464.551 378.62C463.896 378.478 463.238 378.351 462.576 378.238C463.032 378.99 463.471 379.752 463.894 380.523ZM438.829 379.59C437.979 379.865 437.176 380.165 436.419 380.49C432.756 382.06 431.004 383.835 431.004 384.998C431.004 386.16 432.754 387.935 436.419 389.505C437.176 389.83 437.979 390.13 438.829 390.405C439.384 388.655 440.071 386.84 440.891 384.998C440.105 383.235 439.416 381.429 438.829 379.59ZM442.454 378.62C442.656 379.245 442.876 379.879 443.114 380.52C443.538 379.75 443.978 378.989 444.434 378.238C443.759 378.353 443.097 378.48 442.454 378.62ZM468.181 390.405C469.031 390.13 469.835 389.83 470.591 389.505C474.251 387.935 476.001 386.16 476.001 384.998C476.001 383.835 474.251 382.06 470.586 380.49C469.83 380.165 469.026 379.865 468.174 379.59C467.624 381.34 466.934 383.155 466.114 384.998C466.934 386.84 467.621 388.655 468.176 390.405M464.551 391.378C464.348 390.75 464.128 390.115 463.891 389.473C463.468 390.244 463.027 391.006 462.571 391.758C463.246 391.641 463.908 391.515 464.551 391.378Z" fill="#273F39"/>
<path d="M99.2785 428H111.01V447.445H99.2785C83.808 446.944 83.6518 428.526 99.2785 428ZM99.2785 467.722H111.01V448.277H99.2785C83.6518 448.803 83.808 467.22 99.2785 467.722ZM123.745 428H112.013V447.445H123.745C139.424 446.75 139.228 428.397 123.745 428ZM111.01 478.276V468.553H99.2785C89.7055 468.553 83.6518 477.855 90.3096 484.536C96.6574 491.158 111.01 487.857 111.01 478.276ZM135.5 457.999C135.5 450.527 125.673 445.832 117.854 449.568C110.035 453.304 110.035 462.694 117.854 466.43C125.673 470.166 135.5 465.471 135.5 457.999Z" fill="#273F39"/>
<g clip-path="url(#clip5_12516_1216)">
<path d="M245.673 428H193.333C191.215 428 189.5 429.715 189.5 431.832V484.168C189.5 486.279 191.215 488 193.333 488H245.673C247.785 488 249.506 486.285 249.506 484.168V431.827C249.5 429.715 247.785 428 245.673 428ZM216.743 461.816C216.743 463.48 216.586 464.905 216.268 466.078C215.949 467.251 215.469 468.19 214.832 468.927C214.189 469.654 213.39 470.19 212.435 470.525C211.48 470.866 210.368 471.034 209.1 471.034C207.982 471.034 206.976 470.855 206.071 470.508C204.3 469.844 202.915 468.419 202.306 466.631C201.948 465.631 201.775 464.581 201.792 463.52V462.771H205.384C205.384 466.117 206.624 467.793 209.105 467.793C209.742 467.793 210.301 467.721 210.804 467.57C211.301 467.413 211.72 467.134 212.066 466.709C212.413 466.291 212.67 465.709 212.849 464.955C213.027 464.201 213.117 463.223 213.117 462.011V443.285H216.754L216.743 461.816ZM236.806 467.251C236.426 468.017 235.89 468.693 235.231 469.235C234.493 469.827 233.644 470.279 232.739 470.559C231.761 470.872 230.666 471.028 229.453 471.028C224.084 471.028 221.252 468.911 220.961 464.665H224.492C224.509 467.061 226.151 468.263 229.414 468.263C230.141 468.263 230.789 468.184 231.342 468.022C231.901 467.866 232.364 467.642 232.733 467.363C233.454 466.844 233.878 466.011 233.873 465.123C233.89 464.732 233.811 464.346 233.655 463.989C233.51 463.698 233.225 463.447 232.806 463.223C232.247 462.95 231.666 462.732 231.063 462.575C230.096 462.296 229.124 462.028 228.146 461.777C226.978 461.486 225.967 461.196 225.123 460.905C224.375 460.67 223.671 460.318 223.034 459.855C222.503 459.458 222.084 458.933 221.821 458.33C221.559 457.721 221.43 456.955 221.43 456.034C221.43 455.223 221.604 454.469 221.944 453.771C222.291 453.078 222.777 452.475 223.425 451.961C224.062 451.453 224.838 451.056 225.744 450.765C226.727 450.464 227.755 450.318 228.783 450.33C233.973 450.33 236.616 452.173 236.694 455.866H233.219C233.096 454.022 231.705 453.095 229.046 453.095C228.453 453.095 227.911 453.156 227.403 453.274C226.895 453.391 226.464 453.559 226.09 453.782C225.716 454 225.431 454.274 225.218 454.598C225.012 454.933 224.9 455.324 224.911 455.721C224.911 456.106 224.961 456.425 225.056 456.67C225.151 456.922 225.38 457.151 225.749 457.363C226.112 457.575 226.654 457.788 227.369 457.994C228.085 458.201 229.062 458.458 230.303 458.76C231.498 459.05 232.543 459.346 233.426 459.659C234.303 459.972 235.035 460.346 235.627 460.788C236.214 461.223 236.644 461.765 236.929 462.397C237.208 463.028 237.354 463.821 237.354 464.771C237.365 465.67 237.175 466.492 236.806 467.251Z" fill="#273F39"/>
</g>
<path d="M338.123 459.533L337.654 464.389L333.456 465.521L329.28 464.389L329.004 461.407H325.275L325.744 467.332L333.456 469.46H333.542V469.439L341.192 467.332L342.256 455.739H328.535L328.216 451.883H342.576L342.918 448.154H324.082L325.084 459.533H338.123Z" fill="#273F39"/>
<path d="M356.469 431.281H310.531C308.46 431.281 306.781 432.96 306.781 435.031V480.969C306.781 483.04 308.46 484.719 310.531 484.719H356.469C358.54 484.719 360.219 483.04 360.219 480.969V435.031C360.219 432.96 358.54 431.281 356.469 431.281ZM345.772 472.531L333.457 475.984L321.226 472.531L318.5 441.891H348.5L345.772 472.531Z" fill="#273F39"/>
<g clip-path="url(#clip6_12516_1216)">
<path d="M434.466 449.8C434.466 451.033 434.545 452.033 434.684 452.767C434.843 453.5 435.042 454.3 435.32 455.167C435.419 455.433 435.459 455.7 435.459 455.933C435.459 456.267 435.34 456.6 435.082 456.933L433.83 458.333C433.651 458.533 433.472 458.633 433.313 458.633C433.115 458.633 432.916 458.467 432.717 458.167C432.439 457.667 432.201 457.133 432.002 456.6C431.804 456.033 431.605 455.4 431.386 454.633C429.837 457.7 427.89 459.233 425.545 459.233C423.876 459.233 422.545 458.433 421.572 456.833C420.598 455.233 420.102 453.1 420.102 450.433C420.102 447.6 420.698 445.3 421.91 443.567C423.121 441.833 424.731 440.967 426.777 440.967C427.453 440.967 428.148 441.067 428.883 441.233C429.618 441.4 430.373 441.667 431.168 441.967V439.533C431.168 437 430.85 435.233 430.234 434.2C429.598 433.167 428.525 432.667 426.996 432.667C426.3 432.667 425.585 432.8 424.85 433.1C424.115 433.4 423.4 433.767 422.704 434.233C422.386 434.467 422.148 434.6 422.009 434.667C421.87 434.733 421.77 434.767 421.691 434.767C421.413 434.767 421.274 434.433 421.274 433.733V432.1C421.274 431.567 421.313 431.167 421.413 430.933C421.512 430.7 421.691 430.467 421.969 430.233C422.664 429.633 423.499 429.133 424.472 428.733C425.446 428.3 426.479 428.1 427.572 428.1C429.936 428.1 431.664 429 432.777 430.8C433.87 432.6 434.426 435.333 434.426 439V449.8H434.466ZM426.4 454.867C427.055 454.867 427.731 454.667 428.446 454.267C429.161 453.867 429.797 453.133 430.333 452.133C430.651 451.5 430.89 450.8 431.009 450C431.128 449.2 431.208 448.233 431.208 447.1V445.7C430.631 445.467 430.015 445.267 429.38 445.133C428.744 445 428.128 444.933 427.512 444.933C426.181 444.933 425.208 445.367 424.552 446.267C423.896 447.167 423.578 448.433 423.578 450.1C423.578 451.667 423.817 452.833 424.313 453.633C424.79 454.467 425.486 454.867 426.4 454.867ZM442.353 458.467C441.996 458.467 441.757 458.367 441.598 458.133C441.439 457.933 441.3 457.467 441.181 456.833L436.512 431.067C436.393 430.4 436.333 429.967 436.333 429.733C436.333 429.2 436.492 428.9 436.81 428.9H438.757C439.135 428.9 439.393 429 439.532 429.233C439.691 429.433 439.81 429.9 439.929 430.533L443.267 452.6L446.366 430.533C446.466 429.867 446.585 429.433 446.744 429.233C446.903 429.033 447.181 428.9 447.539 428.9H449.128C449.506 428.9 449.764 429 449.923 429.233C450.082 429.433 450.221 429.9 450.3 430.533L453.439 452.867L456.876 430.533C456.996 429.867 457.135 429.433 457.274 429.233C457.433 429.033 457.691 428.9 458.049 428.9H459.896C460.214 428.9 460.393 429.167 460.393 429.733C460.393 429.9 460.373 430.067 460.353 430.267C460.333 430.467 460.294 430.733 460.214 431.1L455.426 456.867C455.307 457.533 455.168 457.967 455.009 458.167C454.85 458.367 454.592 458.5 454.254 458.5H452.545C452.168 458.5 451.91 458.4 451.751 458.167C451.592 457.933 451.453 457.5 451.373 456.833L448.294 435.333L445.234 456.8C445.135 457.467 445.015 457.9 444.857 458.133C444.698 458.367 444.419 458.467 444.062 458.467H442.353ZM467.883 459.367C466.85 459.367 465.817 459.167 464.823 458.767C463.83 458.367 463.055 457.933 462.539 457.433C462.221 457.133 462.002 456.8 461.923 456.5C461.843 456.2 461.804 455.867 461.804 455.567V453.867C461.804 453.167 461.962 452.833 462.26 452.833C462.38 452.833 462.499 452.867 462.618 452.933C462.737 453 462.916 453.133 463.115 453.267C463.79 453.767 464.525 454.167 465.3 454.433C466.095 454.7 466.87 454.833 467.664 454.833C468.916 454.833 469.89 454.467 470.565 453.733C471.241 453 471.598 451.933 471.598 450.567C471.598 449.633 471.419 448.867 471.062 448.233C470.704 447.6 470.029 447.033 469.055 446.5L466.174 445C464.724 444.233 463.651 443.1 462.996 441.6C462.34 440.133 462.002 438.5 462.002 436.767C462.002 435.367 462.181 434.133 462.539 433.067C462.896 432 463.373 431.067 463.969 430.333C464.565 429.567 465.241 429 466.035 428.6C466.83 428.2 467.664 428.033 468.539 428.033C468.976 428.033 469.433 428.067 469.87 428.167C470.327 428.267 470.744 428.4 471.161 428.533C471.559 428.7 471.936 428.867 472.294 429.067C472.651 429.267 472.929 429.467 473.128 429.667C473.406 429.933 473.605 430.2 473.724 430.5C473.843 430.767 473.903 431.133 473.903 431.6V433.167C473.903 433.867 473.744 434.233 473.446 434.233C473.287 434.233 473.029 434.1 472.691 433.833C471.559 432.967 470.287 432.533 468.876 432.533C467.744 432.533 466.85 432.833 466.234 433.467C465.618 434.1 465.3 435.067 465.3 436.433C465.3 437.367 465.499 438.167 465.896 438.8C466.294 439.433 467.029 440.067 468.082 440.633L470.903 442.133C472.333 442.9 473.366 443.967 473.982 445.333C474.598 446.7 474.896 448.267 474.896 450C474.896 451.433 474.717 452.733 474.38 453.867C474.022 455 473.545 456 472.929 456.8C472.313 457.633 471.578 458.233 470.724 458.667C469.83 459.133 468.896 459.367 467.883 459.367Z" fill="#273F39"/>
<path d="M471.639 475.567C465.103 483.667 455.606 487.967 447.44 487.967C435.997 487.967 425.686 480.867 417.897 469.067C417.282 468.133 417.838 466.867 418.573 467.6C426.997 475.8 437.388 480.767 448.136 480.767C455.388 480.767 463.354 478.233 470.686 473.033C471.778 472.2 472.712 474.233 471.639 475.567Z" fill="#273F39"/>
<path d="M474.362 470.366C473.527 468.566 468.839 469.499 466.713 469.932C466.077 470.066 465.978 469.132 466.554 468.432C470.289 464.032 476.428 465.299 477.143 466.766C477.859 468.266 476.945 478.566 473.448 483.499C472.912 484.266 472.395 483.866 472.633 482.866C473.428 479.566 475.196 472.132 474.362 470.366Z" fill="#273F39"/>
</g>
<defs>
<clipPath id="clip0_12516_1216">
<rect width="60" height="60" fill="white" transform="translate(81.5 191)"/>
</clipPath>
<clipPath id="clip1_12516_1216">
<rect width="60" height="60" fill="white" transform="translate(195.5 191)"/>
</clipPath>
<clipPath id="clip2_12516_1216">
<rect width="60" height="72" fill="white" transform="translate(309.5 185)"/>
</clipPath>
<clipPath id="clip3_12516_1216">
<rect width="60" height="60" fill="white" transform="translate(75.5 276)"/>
</clipPath>
<clipPath id="clip4_12516_1216">
<rect width="60" height="60" fill="white" transform="translate(429.5 276)"/>
</clipPath>
<clipPath id="clip5_12516_1216">
<rect width="60" height="60" fill="white" transform="translate(189.5 428)"/>
</clipPath>
<clipPath id="clip6_12516_1216">
<rect width="60" height="60" fill="white" transform="translate(417.5 428)"/>
</clipPath>
</defs>
</svg>
